<?xml version="1.0" encoding="utf-8"?>
<!-- Generator: Adobe Illustrator 21.0.2, SVG Export Plug-In . SVG Version: 6.00 Build 0)  -->
<svg version="1.1" id="レイヤー_1" xmlns="http://www.w3.org/2000/svg" xmlns:xlink="http://www.w3.org/1999/xlink" x="0px"
	 y="0px" viewBox="0 0 322 54" style="enable-background:new 0 0 322 54;" xml:space="preserve">
<style type="text/css">
	.st0{fill:#818181;}
	.st1{fill:#EB008B;}
	.st2{fill:none;stroke:#FEFEFE;stroke-width:0.3098;stroke-miterlimit:10;}
	.st3{fill:none;}
	.st4{clip-path:url(#SVGID_1_);fill:#EB008B;}
	.st5{clip-path:url(#SVGID_2_);fill:none;stroke:#FEFEFE;stroke-width:0.3098;stroke-miterlimit:10;}
	.st6{clip-path:url(#SVGID_3_);fill:#EB008B;}
	.st7{clip-path:url(#SVGID_3_);fill:none;stroke:#FEFEFE;stroke-width:0.3098;stroke-miterlimit:10;}
	.st8{clip-path:url(#SVGID_4_);fill:#EB008B;}
	.st9{clip-path:url(#SVGID_5_);fill:none;stroke:#FEFEFE;stroke-width:0.3098;stroke-miterlimit:10;}
	.st10{clip-path:url(#SVGID_6_);fill:#EB008B;}
	.st11{clip-path:url(#SVGID_7_);fill:none;stroke:#FEFEFE;stroke-width:0.3098;stroke-miterlimit:10;}
	.st12{clip-path:url(#SVGID_8_);fill:#7A1D8F;}
	.st13{clip-path:url(#SVGID_8_);fill:none;stroke:#FEFEFE;stroke-width:0.3098;stroke-miterlimit:10;}
	.st14{clip-path:url(#SVGID_9_);fill:#7A1D8F;}
	.st15{clip-path:url(#SVGID_10_);fill:none;stroke:#FEFEFE;stroke-width:0.3098;stroke-miterlimit:10;}
	.st16{clip-path:url(#SVGID_11_);fill:#00ADEE;}
	.st17{clip-path:url(#SVGID_11_);fill:none;stroke:#FEFEFE;stroke-width:0.3098;stroke-miterlimit:10;}
	.st18{clip-path:url(#SVGID_12_);fill:#00ADEE;}
	.st19{clip-path:url(#SVGID_13_);fill:none;stroke:#FEFEFE;stroke-width:0.3098;stroke-miterlimit:10;}
	.st20{clip-path:url(#SVGID_14_);fill:#00ADEE;}
	.st21{clip-path:url(#SVGID_15_);fill:none;stroke:#FEFEFE;stroke-width:0.3098;stroke-miterlimit:10;}
	.st22{clip-path:url(#SVGID_16_);fill:#00ADEE;}
	.st23{clip-path:url(#SVGID_16_);fill:none;stroke:#FEFEFE;stroke-width:0.3098;stroke-miterlimit:10;}
	.st24{clip-path:url(#SVGID_55_);fill:#00ADEE;}
	.st25{clip-path:url(#SVGID_56_);fill:none;stroke:#FEFEFE;stroke-width:0.3098;stroke-miterlimit:10;}
	.st26{clip-path:url(#SVGID_57_);fill:#56C9F3;}
	.st27{clip-path:url(#SVGID_57_);fill:none;stroke:#FEFEFE;stroke-width:0.3098;stroke-miterlimit:10;}
	.st28{clip-path:url(#SVGID_58_);fill:#56C9F3;}
	.st29{clip-path:url(#SVGID_59_);fill:none;stroke:#FEFEFE;stroke-width:0.3098;stroke-miterlimit:10;}
	.st30{clip-path:url(#SVGID_60_);fill:#56C9F3;}
	.st31{clip-path:url(#SVGID_60_);fill:none;stroke:#FEFEFE;stroke-width:0.3098;stroke-miterlimit:10;}
	.st32{clip-path:url(#SVGID_61_);fill:#56C9F3;}
	.st33{clip-path:url(#SVGID_62_);fill:none;stroke:#FEFEFE;stroke-width:0.3098;stroke-miterlimit:10;}
	.st34{clip-path:url(#SVGID_63_);fill:#56C9F3;}
	.st35{clip-path:url(#SVGID_64_);fill:none;stroke:#FEFEFE;stroke-width:0.3098;stroke-miterlimit:10;}
	.st36{clip-path:url(#SVGID_65_);fill:#56C9F3;}
	.st37{clip-path:url(#SVGID_65_);fill:none;stroke:#FEFEFE;stroke-width:0.3098;stroke-miterlimit:10;}
	.st38{clip-path:url(#SVGID_66_);fill:#56C9F3;}
	.st39{clip-path:url(#SVGID_67_);fill:none;stroke:#FEFEFE;stroke-width:0.3098;stroke-miterlimit:10;}
	.st40{clip-path:url(#SVGID_68_);fill:#56C9F3;}
	.st41{clip-path:url(#SVGID_68_);fill:none;stroke:#FEFEFE;stroke-width:0.3098;stroke-miterlimit:10;}
	.st42{clip-path:url(#SVGID_69_);fill:#56C9F3;}
	.st43{clip-path:url(#SVGID_70_);fill:none;stroke:#FEFEFE;stroke-width:0.3098;stroke-miterlimit:10;}
	.st44{clip-path:url(#SVGID_71_);fill:#56C9F3;}
	.st45{clip-path:url(#SVGID_72_);fill:none;stroke:#FEFEFE;stroke-width:0.3098;stroke-miterlimit:10;}
	.st46{clip-path:url(#SVGID_73_);fill:#56C9F3;}
	.st47{clip-path:url(#SVGID_73_);fill:none;stroke:#FEFEFE;stroke-width:0.3098;stroke-miterlimit:10;}
	.st48{clip-path:url(#SVGID_74_);fill:#56C9F3;}
	.st49{clip-path:url(#SVGID_75_);fill:none;stroke:#FEFEFE;stroke-width:0.3098;stroke-miterlimit:10;}
	.st50{clip-path:url(#SVGID_76_);fill:#EB008B;}
	.st51{clip-path:url(#SVGID_76_);fill:none;stroke:#FEFEFE;stroke-width:0.3098;stroke-miterlimit:10;}
	.st52{clip-path:url(#SVGID_76_);fill:#F8AAD8;}
	.st53{clip-path:url(#SVGID_76_);fill:#AAE3F9;}
	.st54{clip-path:url(#SVGID_76_);fill:#C091CE;}
	.st55{clip-path:url(#SVGID_76_);fill:#F256B2;}
	.st56{clip-path:url(#SVGID_76_);fill:none;stroke:#000000;stroke-width:0.1859;stroke-miterlimit:10;}
</style>
<g>
	<g>
		<polygon class="st0" points="72.5,39.3 72.5,39.3 72.5,16.4 74.3,16.4 74.3,37.5 83.1,37.5 83.1,39.3 		"/>
		<path class="st0" d="M96.1,39.7L96.1,39.7c-6.8,0-11.6-5-11.6-12.1c0-6.7,4.9-11.7,11.6-11.7s11.6,5,11.6,11.8
			C107.7,34.7,102.8,39.7,96.1,39.7z M96.1,17.7L96.1,17.7c-5.6,0-9.7,4.3-9.7,10.2c0,5.6,4.2,10.1,9.7,10.1c5.5,0,9.7-4.5,9.7-10.2
			C105.8,22.1,101.6,17.7,96.1,17.7z"/>
		<path class="st0" d="M122.7,39.7L122.7,39.7c-3.7,0-6.5-1.1-8.7-2.9c-2.4-2.2-3.8-5.4-3.8-9c0-7,5-11.8,12.3-11.8
			c2.7,0,4.8,0.6,7.6,1.9l-0.7,1.9c-2.3-1.4-4.4-2-7-2c-6.1,0-10.3,4.1-10.3,10.1c0,6.2,4.2,10.2,10.8,10.2c2.1,0,3.9-0.3,5.8-1.1
			v-7.8h-6.4v-1.8h8.2v10.8C127.7,39.3,125.4,39.7,122.7,39.7z"/>
		<polygon class="st0" points="135.9,16.4 135.9,16.4 137.8,16.4 137.8,39.3 135.9,39.3 		"/>
		<path class="st0" d="M154.8,39.7L154.8,39.7c-7.1,0-12-4.9-12-11.9s4.9-11.9,11.8-11.9c2.5,0,4.5,0.6,6.7,1.9l-0.7,1.8
			c-2-1.4-3.6-1.9-5.9-1.9c-5.8,0-10,4.2-10,10.1c0,6,4.2,10.2,10.2,10.2c2.6,0,4.4-0.5,6.5-1.9v2.1
			C159.1,39.3,157.1,39.7,154.8,39.7z"/>
		<path class="st0" d="M181.5,39.3L181.5,39.3l-2.7-7.3h-10.7l-2.7,7.3h-2.1l8.8-22.9h2.5l8.9,22.9H181.5z M173.3,18L173.3,18
			l-4.7,12.3h9.4L173.3,18z"/>
		<polygon class="st0" points="186.4,39.3 186.4,39.3 186.4,16.4 188.2,16.4 188.2,37.5 196.9,37.5 196.9,39.3 		"/>
		<path class="st0" d="M213,39.5L213,39.5c-2.2,0-4.1-0.6-5.9-1.6l0.6-1.8c1.8,1.2,3.4,1.6,5.4,1.6c3.5,0,5.7-1.9,5.7-4.7
			c0-1.2-0.3-2.3-1.1-3.1c-0.7-0.7-1.4-1.2-3.7-2c-2.1-0.7-3.1-1.2-4-1.9c-1.4-1.1-2.1-2.5-2.1-4.2c0-3.6,2.7-6.2,6.7-6.2
			c1.6,0,3.2,0.5,4.8,1.3l-0.6,1.8c-1.5-1-2.7-1.3-4.2-1.3c-2.7,0-4.8,1.8-4.8,4.3c0,1.1,0.5,2,1,2.7c0.7,0.7,1.5,1,3.9,1.9
			c2.5,0.9,3.8,1.8,4.7,2.7c0.9,1.1,1.4,2.5,1.4,4C220.7,36.9,217.6,39.5,213,39.5z"/>
		<polygon class="st0" points="232.2,17.9 232.2,17.9 232.2,39 230.2,39 230.2,17.9 222.4,17.9 222.4,16.1 240,16.1 240,17.9 		"/>
		<path class="st0" d="M261,34.6L261,34.6c-1.2,3.2-4.1,4.8-8.5,4.8c-4.5,0-7.4-1.8-8.6-5.2c-0.5-1.3-0.7-3.1-0.7-5.2V16h1.8v12.9
			c0,2.6,0.2,4.1,0.9,5.3c1,2.4,3.2,3.4,6.5,3.4c3.5,0,5.8-1.2,6.8-3.7c0.5-1.1,0.7-2.6,0.7-4.9V16.1h1.8v13
			C261.8,31.4,261.6,33.4,261,34.6z"/>
		<path class="st0" d="M279.8,38L279.8,38c-1.6,0.7-3.2,1-5.7,1h-8.2V16.1h8.2c2.5,0,4.1,0.2,5.7,1c3.9,1.4,6.1,5.3,6.1,10.4
			C285.8,32.8,283.7,36.7,279.8,38z M279,18.6L279,18.6c-1.4-0.5-2.9-0.7-4.9-0.7h-6.2v19.4h6.1c2.1,0,3.8-0.2,5.2-0.7
			c3.1-1.3,4.9-4.6,4.9-9C284,23.2,282.2,19.8,279,18.6z"/>
		<polygon class="st0" points="290.6,16.1 290.6,16.1 292.7,16.1 292.7,39 290.6,39 		"/>
		<path class="st0" d="M309,39.5L309,39.5c-6.8,0-11.6-5-11.6-12.1c0-6.7,4.9-11.7,11.6-11.7c6.7,0,11.6,5,11.6,11.9
			C320.6,34.4,315.6,39.5,309,39.5z M309,17.4L309,17.4c-5.6,0-9.7,4.3-9.7,10.2c0,5.6,4.2,10.1,9.7,10.1c5.4,0,9.7-4.4,9.7-10.2
			C318.7,21.9,314.3,17.4,309,17.4z"/>
	</g>
	<g>
		<polygon class="st1" points="31.9,27.5 31.9,27.5 37.3,23.7 37.3,16.1 31.9,19.9 		"/>
		<polygon class="st2" points="31.9,27.5 31.9,27.5 37.3,23.7 37.3,16.1 31.9,19.9 		"/>
		<polygon class="st1" points="48.2,31.3 48.2,31.3 53.7,27.5 53.7,19.9 48.2,23.7 		"/>
		<polygon class="st2" points="48.2,31.3 48.2,31.3 53.7,27.5 53.7,19.9 48.2,23.7 		"/>
		<polygon class="st1" points="48.2,38.9 48.2,38.9 53.7,35 53.7,27.5 48.2,31.3 		"/>
		<polygon class="st2" points="48.2,38.9 48.2,38.9 53.7,35 53.7,27.5 48.2,31.3 		"/>
		<polygon class="st1" points="48.2,46.4 48.2,46.4 53.7,42.6 53.7,35 48.2,38.9 		"/>
		<polygon class="st2" points="48.2,46.4 48.2,46.4 53.7,42.6 53.7,35 48.2,38.9 		"/>
		<polygon class="st1" points="48.2,54 48.2,54 53.7,50.2 53.7,42.6 48.2,46.4 		"/>
		<polygon class="st2" points="48.2,54 48.2,54 53.7,50.2 53.7,42.6 48.2,46.4 		"/>
		<rect class="st3" width="56.2" height="53.6"/>
		<g>
			<defs>
				<rect id="SVGID_54_" width="55.1" height="53.6"/>
			</defs>
			<clipPath id="SVGID_1_">
				<use xlink:href="#SVGID_54_"  style="overflow:visible;"/>
			</clipPath>
			<polygon class="st4" points="48.2,64.7 48.2,64.7 53.7,64.7 53.7,50.2 48.2,54 			"/>
		</g>
		<g>
			<defs>
				<rect id="SVGID_53_" width="55.1" height="53.6"/>
			</defs>
			<clipPath id="SVGID_2_">
				<use xlink:href="#SVGID_53_"  style="overflow:visible;"/>
			</clipPath>
			<polygon class="st5" points="48.2,64.7 48.2,64.7 53.7,64.7 53.7,50.2 48.2,54 			"/>
		</g>
		<g>
			<defs>
				<rect id="SVGID_52_" width="56.2" height="53.6"/>
			</defs>
			<clipPath id="SVGID_3_">
				<use xlink:href="#SVGID_52_"  style="overflow:visible;"/>
			</clipPath>
			<polygon class="st6" points="42.8,35 42.8,35 48.2,31.3 48.2,23.7 42.8,27.5 			"/>
			<polygon class="st7" points="42.8,35 42.8,35 48.2,31.3 48.2,23.7 42.8,27.5 			"/>
			<polygon class="st6" points="42.8,42.6 42.8,42.6 48.2,38.9 48.2,31.3 42.8,35 			"/>
			<polygon class="st7" points="42.8,42.6 42.8,42.6 48.2,38.9 48.2,31.3 42.8,35 			"/>
			<polygon class="st6" points="42.8,50.2 42.8,50.2 48.2,46.4 48.2,38.9 42.8,42.6 			"/>
			<polygon class="st7" points="42.8,50.2 42.8,50.2 48.2,46.4 48.2,38.9 42.8,42.6 			"/>
		</g>
		<g>
			<defs>
				<rect id="SVGID_51_" width="55.1" height="53.6"/>
			</defs>
			<clipPath id="SVGID_4_">
				<use xlink:href="#SVGID_51_"  style="overflow:visible;"/>
			</clipPath>
			<polygon class="st8" points="42.8,57.8 42.8,57.8 48.2,54 48.2,46.4 42.8,50.2 			"/>
		</g>
		<g>
			<defs>
				<rect id="SVGID_50_" width="55.1" height="53.6"/>
			</defs>
			<clipPath id="SVGID_5_">
				<use xlink:href="#SVGID_50_"  style="overflow:visible;"/>
			</clipPath>
			<polygon class="st9" points="42.8,57.8 42.8,57.8 48.2,54 48.2,46.4 42.8,50.2 			"/>
		</g>
		<g>
			<defs>
				<rect id="SVGID_49_" width="55.1" height="53.6"/>
			</defs>
			<clipPath id="SVGID_6_">
				<use xlink:href="#SVGID_49_"  style="overflow:visible;"/>
			</clipPath>
			<polygon class="st10" points="42.8,64.7 42.8,64.7 48.2,64.7 48.2,54 42.8,57.8 			"/>
		</g>
		<g>
			<defs>
				<rect id="SVGID_48_" width="55.1" height="53.6"/>
			</defs>
			<clipPath id="SVGID_7_">
				<use xlink:href="#SVGID_48_"  style="overflow:visible;"/>
			</clipPath>
			<polygon class="st11" points="42.8,64.7 42.8,64.7 48.2,64.7 48.2,54 42.8,57.8 			"/>
		</g>
		<g>
			<defs>
				<rect id="SVGID_47_" width="56.2" height="53.6"/>
			</defs>
			<clipPath id="SVGID_8_">
				<use xlink:href="#SVGID_47_"  style="overflow:visible;"/>
			</clipPath>
			<polygon class="st12" points="37.3,38.9 37.3,38.9 42.8,35 42.8,27.5 37.3,31.3 			"/>
			<polygon class="st13" points="37.3,38.9 37.3,38.9 42.8,35 42.8,27.5 37.3,31.3 			"/>
			<polygon class="st12" points="37.3,46.4 37.3,46.4 42.8,42.6 42.8,35 37.3,38.9 			"/>
			<polygon class="st13" points="37.3,46.4 37.3,46.4 42.8,42.6 42.8,35 37.3,38.9 			"/>
			<polygon class="st12" points="37.3,54 37.3,54 42.8,50.2 42.8,42.6 37.3,46.4 			"/>
			<polygon class="st13" points="37.3,54 37.3,54 42.8,50.2 42.8,42.6 37.3,46.4 			"/>
		</g>
		<g>
			<defs>
				<rect id="SVGID_46_" width="55.1" height="53.6"/>
			</defs>
			<clipPath id="SVGID_9_">
				<use xlink:href="#SVGID_46_"  style="overflow:visible;"/>
			</clipPath>
			<polygon class="st14" points="37.3,61.5 37.3,61.5 42.8,57.8 42.8,50.2 37.3,54 			"/>
		</g>
		<g>
			<defs>
				<rect id="SVGID_45_" width="55.1" height="53.6"/>
			</defs>
			<clipPath id="SVGID_10_">
				<use xlink:href="#SVGID_45_"  style="overflow:visible;"/>
			</clipPath>
			<polygon class="st15" points="37.3,61.5 37.3,61.5 42.8,57.8 42.8,50.2 37.3,54 			"/>
		</g>
		<g>
			<defs>
				<rect id="SVGID_44_" width="56.2" height="53.6"/>
			</defs>
			<clipPath id="SVGID_11_">
				<use xlink:href="#SVGID_44_"  style="overflow:visible;"/>
			</clipPath>
			<polygon class="st16" points="31.9,42.6 31.9,42.6 37.3,38.9 37.3,31.3 31.9,35 			"/>
			<polygon class="st17" points="31.9,42.6 31.9,42.6 37.3,38.9 37.3,31.3 31.9,35 			"/>
			<polygon class="st16" points="31.9,50.2 31.9,50.2 37.3,46.4 37.3,38.9 31.9,42.6 			"/>
			<polygon class="st17" points="31.9,50.2 31.9,50.2 37.3,46.4 37.3,38.9 31.9,42.6 			"/>
		</g>
		<g>
			<defs>
				<rect id="SVGID_43_" width="55.1" height="53.6"/>
			</defs>
			<clipPath id="SVGID_12_">
				<use xlink:href="#SVGID_43_"  style="overflow:visible;"/>
			</clipPath>
			<polygon class="st18" points="31.9,57.8 31.9,57.8 37.3,54 37.3,46.4 31.9,50.2 			"/>
		</g>
		<g>
			<defs>
				<rect id="SVGID_42_" width="55.1" height="53.6"/>
			</defs>
			<clipPath id="SVGID_13_">
				<use xlink:href="#SVGID_42_"  style="overflow:visible;"/>
			</clipPath>
			<polygon class="st19" points="31.9,57.8 31.9,57.8 37.3,54 37.3,46.4 31.9,50.2 			"/>
		</g>
		<g>
			<defs>
				<rect id="SVGID_41_" width="55.1" height="53.6"/>
			</defs>
			<clipPath id="SVGID_14_">
				<use xlink:href="#SVGID_41_"  style="overflow:visible;"/>
			</clipPath>
			<polygon class="st20" points="31.9,64.7 31.9,64.7 37.3,61.5 37.3,54 31.9,57.8 			"/>
		</g>
		<g>
			<defs>
				<rect id="SVGID_40_" width="55.1" height="53.6"/>
			</defs>
			<clipPath id="SVGID_15_">
				<use xlink:href="#SVGID_40_"  style="overflow:visible;"/>
			</clipPath>
			<polygon class="st21" points="31.9,64.7 31.9,64.7 37.3,61.5 37.3,54 31.9,57.8 			"/>
		</g>
		<g>
			<defs>
				<rect id="SVGID_39_" width="56.2" height="53.6"/>
			</defs>
			<clipPath id="SVGID_16_">
				<use xlink:href="#SVGID_39_"  style="overflow:visible;"/>
			</clipPath>
			<polygon class="st22" points="26.4,46.4 26.4,46.4 31.9,42.6 31.9,35 26.4,38.9 			"/>
			<polygon class="st23" points="26.4,46.4 26.4,46.4 31.9,42.6 31.9,35 26.4,38.9 			"/>
			<polygon class="st22" points="26.4,54 26.4,54 31.9,50.2 31.9,42.6 26.4,46.4 			"/>
			<polygon class="st23" points="26.4,54 26.4,54 31.9,50.2 31.9,42.6 26.4,46.4 			"/>
		</g>
		<g>
			<defs>
				<rect id="SVGID_38_" width="55.1" height="53.6"/>
			</defs>
			<clipPath id="SVGID_55_">
				<use xlink:href="#SVGID_38_"  style="overflow:visible;"/>
			</clipPath>
			<polygon class="st24" points="26.4,61.5 26.4,61.5 31.9,57.8 31.9,50.2 26.4,54 			"/>
		</g>
		<g>
			<defs>
				<rect id="SVGID_37_" width="55.1" height="53.6"/>
			</defs>
			<clipPath id="SVGID_56_">
				<use xlink:href="#SVGID_37_"  style="overflow:visible;"/>
			</clipPath>
			<polygon class="st25" points="26.4,61.5 26.4,61.5 31.9,57.8 31.9,50.2 26.4,54 			"/>
		</g>
		<g>
			<defs>
				<rect id="SVGID_36_" width="56.2" height="53.6"/>
			</defs>
			<clipPath id="SVGID_57_">
				<use xlink:href="#SVGID_36_"  style="overflow:visible;"/>
			</clipPath>
			<polygon class="st26" points="4.6,31.3 4.6,31.3 -0.9,27.5 -0.9,19.9 4.6,23.7 			"/>
			<polygon class="st27" points="4.6,31.3 4.6,31.3 -0.9,27.5 -0.9,19.9 4.6,23.7 			"/>
			<polygon class="st26" points="4.6,38.9 4.6,38.9 -0.9,35 -0.9,27.5 4.6,31.3 			"/>
			<polygon class="st27" points="4.6,38.9 4.6,38.9 -0.9,35 -0.9,27.5 4.6,31.3 			"/>
			<polygon class="st26" points="4.6,46.4 4.6,46.4 -0.9,42.6 -0.9,35 4.6,38.9 			"/>
			<polygon class="st27" points="4.6,46.4 4.6,46.4 -0.9,42.6 -0.9,35 4.6,38.9 			"/>
			<polygon class="st26" points="4.6,54 4.6,54 -0.9,50.2 -0.9,42.6 4.6,46.4 			"/>
			<polygon class="st27" points="4.6,54 4.6,54 -0.9,50.2 -0.9,42.6 4.6,46.4 			"/>
		</g>
		<g>
			<defs>
				<rect id="SVGID_35_" width="55.1" height="53.6"/>
			</defs>
			<clipPath id="SVGID_58_">
				<use xlink:href="#SVGID_35_"  style="overflow:visible;"/>
			</clipPath>
			<polygon class="st28" points="4.6,64.7 4.6,64.7 -0.9,64.7 -0.9,50.2 4.6,54 			"/>
		</g>
		<g>
			<defs>
				<rect id="SVGID_34_" width="55.1" height="53.6"/>
			</defs>
			<clipPath id="SVGID_59_">
				<use xlink:href="#SVGID_34_"  style="overflow:visible;"/>
			</clipPath>
			<polygon class="st29" points="4.6,64.7 4.6,64.7 -0.9,64.7 -0.9,50.2 4.6,54 			"/>
		</g>
		<g>
			<defs>
				<rect id="SVGID_33_" width="56.2" height="53.6"/>
			</defs>
			<clipPath id="SVGID_60_">
				<use xlink:href="#SVGID_33_"  style="overflow:visible;"/>
			</clipPath>
			<polygon class="st30" points="10,35 10,35 4.6,31.3 4.6,23.7 10,27.5 			"/>
			<polygon class="st31" points="10,35 10,35 4.6,31.3 4.6,23.7 10,27.5 			"/>
			<polygon class="st30" points="10,42.6 10,42.6 4.6,38.9 4.6,31.3 10,35 			"/>
			<polygon class="st31" points="10,42.6 10,42.6 4.6,38.9 4.6,31.3 10,35 			"/>
			<polygon class="st30" points="10,50.2 10,50.2 4.6,46.4 4.6,38.9 10,42.6 			"/>
			<polygon class="st31" points="10,50.2 10,50.2 4.6,46.4 4.6,38.9 10,42.6 			"/>
		</g>
		<g>
			<defs>
				<rect id="SVGID_32_" width="55.1" height="53.6"/>
			</defs>
			<clipPath id="SVGID_61_">
				<use xlink:href="#SVGID_32_"  style="overflow:visible;"/>
			</clipPath>
			<polygon class="st32" points="10,57.8 10,57.8 4.6,54 4.6,46.4 10,50.2 			"/>
		</g>
		<g>
			<defs>
				<rect id="SVGID_31_" width="55.1" height="53.6"/>
			</defs>
			<clipPath id="SVGID_62_">
				<use xlink:href="#SVGID_31_"  style="overflow:visible;"/>
			</clipPath>
			<polygon class="st33" points="10,57.8 10,57.8 4.6,54 4.6,46.4 10,50.2 			"/>
		</g>
		<g>
			<defs>
				<rect id="SVGID_30_" width="55.1" height="53.6"/>
			</defs>
			<clipPath id="SVGID_63_">
				<use xlink:href="#SVGID_30_"  style="overflow:visible;"/>
			</clipPath>
			<polygon class="st34" points="10,64.7 10,64.7 4.6,64.7 4.6,54 10,57.8 			"/>
		</g>
		<g>
			<defs>
				<rect id="SVGID_29_" width="55.1" height="53.6"/>
			</defs>
			<clipPath id="SVGID_64_">
				<use xlink:href="#SVGID_29_"  style="overflow:visible;"/>
			</clipPath>
			<polygon class="st35" points="10,64.7 10,64.7 4.6,64.7 4.6,54 10,57.8 			"/>
		</g>
		<g>
			<defs>
				<rect id="SVGID_28_" width="56.2" height="53.6"/>
			</defs>
			<clipPath id="SVGID_65_">
				<use xlink:href="#SVGID_28_"  style="overflow:visible;"/>
			</clipPath>
			<polygon class="st36" points="15.5,38.9 15.5,38.9 10,35 10,27.5 15.5,31.3 			"/>
			<polygon class="st37" points="15.5,38.9 15.5,38.9 10,35 10,27.5 15.5,31.3 			"/>
			<polygon class="st36" points="15.5,46.4 15.5,46.4 10,42.6 10,35 15.5,38.9 			"/>
			<polygon class="st37" points="15.5,46.4 15.5,46.4 10,42.6 10,35 15.5,38.9 			"/>
			<polygon class="st36" points="15.5,54 15.5,54 10,50.2 10,42.6 15.5,46.4 			"/>
			<polygon class="st37" points="15.5,54 15.5,54 10,50.2 10,42.6 15.5,46.4 			"/>
		</g>
		<g>
			<defs>
				<rect id="SVGID_27_" width="55.1" height="53.6"/>
			</defs>
			<clipPath id="SVGID_66_">
				<use xlink:href="#SVGID_27_"  style="overflow:visible;"/>
			</clipPath>
			<polygon class="st38" points="15.5,61.5 15.5,61.5 10,57.8 10,50.2 15.5,54 			"/>
		</g>
		<g>
			<defs>
				<rect id="SVGID_26_" width="55.1" height="53.6"/>
			</defs>
			<clipPath id="SVGID_67_">
				<use xlink:href="#SVGID_26_"  style="overflow:visible;"/>
			</clipPath>
			<polygon class="st39" points="15.5,61.5 15.5,61.5 10,57.8 10,50.2 15.5,54 			"/>
		</g>
		<g>
			<defs>
				<rect id="SVGID_25_" width="56.2" height="53.6"/>
			</defs>
			<clipPath id="SVGID_68_">
				<use xlink:href="#SVGID_25_"  style="overflow:visible;"/>
			</clipPath>
			<polygon class="st40" points="21,42.6 21,42.6 15.5,38.9 15.5,31.3 21,35 			"/>
			<polygon class="st41" points="21,42.6 21,42.6 15.5,38.9 15.5,31.3 21,35 			"/>
			<polygon class="st40" points="21,50.2 21,50.2 15.5,46.4 15.5,38.9 21,42.6 			"/>
			<polygon class="st41" points="21,50.2 21,50.2 15.5,46.4 15.5,38.9 21,42.6 			"/>
		</g>
		<g>
			<defs>
				<rect id="SVGID_24_" width="55.1" height="53.6"/>
			</defs>
			<clipPath id="SVGID_69_">
				<use xlink:href="#SVGID_24_"  style="overflow:visible;"/>
			</clipPath>
			<polygon class="st42" points="21,57.8 21,57.8 15.5,54 15.5,46.4 21,50.2 			"/>
		</g>
		<g>
			<defs>
				<rect id="SVGID_23_" width="55.1" height="53.6"/>
			</defs>
			<clipPath id="SVGID_70_">
				<use xlink:href="#SVGID_23_"  style="overflow:visible;"/>
			</clipPath>
			<polygon class="st43" points="21,57.8 21,57.8 15.5,54 15.5,46.4 21,50.2 			"/>
		</g>
		<g>
			<defs>
				<rect id="SVGID_22_" width="55.1" height="53.6"/>
			</defs>
			<clipPath id="SVGID_71_">
				<use xlink:href="#SVGID_22_"  style="overflow:visible;"/>
			</clipPath>
			<polygon class="st44" points="21,64.7 21,64.7 15.5,61.5 15.5,54 21,57.8 			"/>
		</g>
		<g>
			<defs>
				<rect id="SVGID_21_" width="55.1" height="53.6"/>
			</defs>
			<clipPath id="SVGID_72_">
				<use xlink:href="#SVGID_21_"  style="overflow:visible;"/>
			</clipPath>
			<polygon class="st45" points="21,64.7 21,64.7 15.5,61.5 15.5,54 21,57.8 			"/>
		</g>
		<g>
			<defs>
				<rect id="SVGID_20_" width="56.2" height="53.6"/>
			</defs>
			<clipPath id="SVGID_73_">
				<use xlink:href="#SVGID_20_"  style="overflow:visible;"/>
			</clipPath>
			<polygon class="st46" points="26.4,46.4 26.4,46.4 21,42.6 21,35 26.4,38.9 			"/>
			<polygon class="st47" points="26.4,46.4 26.4,46.4 21,42.6 21,35 26.4,38.9 			"/>
			<polygon class="st46" points="26.4,54 26.4,54 21,50.2 21,42.6 26.4,46.4 			"/>
			<polygon class="st47" points="26.4,54 26.4,54 21,50.2 21,42.6 26.4,46.4 			"/>
		</g>
		<g>
			<defs>
				<rect id="SVGID_19_" width="55.1" height="53.6"/>
			</defs>
			<clipPath id="SVGID_74_">
				<use xlink:href="#SVGID_19_"  style="overflow:visible;"/>
			</clipPath>
			<polygon class="st48" points="26.4,61.5 26.4,61.5 21,57.8 21,50.2 26.4,54 			"/>
		</g>
		<g>
			<defs>
				<rect id="SVGID_18_" width="55.1" height="53.6"/>
			</defs>
			<clipPath id="SVGID_75_">
				<use xlink:href="#SVGID_18_"  style="overflow:visible;"/>
			</clipPath>
			<polygon class="st49" points="26.4,61.5 26.4,61.5 21,57.8 21,50.2 26.4,54 			"/>
		</g>
		<g>
			<defs>
				<rect id="SVGID_17_" width="56.2" height="53.6"/>
			</defs>
			<clipPath id="SVGID_76_">
				<use xlink:href="#SVGID_17_"  style="overflow:visible;"/>
			</clipPath>
			<polygon class="st50" points="26.4,31.3 26.4,31.3 31.9,27.5 31.9,19.9 26.4,23.7 			"/>
			<polygon class="st51" points="26.4,31.3 26.4,31.3 31.9,27.5 31.9,19.9 26.4,23.7 			"/>
			<polygon class="st52" points="26.4,8.5 26.4,8.5 21,4.8 26.4,1 31.9,4.8 			"/>
			<polygon class="st51" points="26.4,8.5 26.4,8.5 21,4.8 26.4,1 31.9,4.8 			"/>
			<polygon class="st52" points="21,12.3 21,12.3 15.5,8.5 21,4.8 26.4,8.5 			"/>
			<polygon class="st51" points="21,12.3 21,12.3 15.5,8.5 21,4.8 26.4,8.5 			"/>
			<polygon class="st52" points="15.5,16.1 15.5,16.1 10,12.3 15.5,8.5 21,12.3 			"/>
			<polygon class="st51" points="15.5,16.1 15.5,16.1 10,12.3 15.5,8.5 21,12.3 			"/>
			<polygon class="st53" points="4.6,23.7 4.6,23.7 -0.9,19.9 4.6,16.1 10,19.9 			"/>
			<polygon class="st51" points="4.6,23.7 4.6,23.7 -0.9,19.9 4.6,16.1 10,19.9 			"/>
			<polygon class="st53" points="10,27.5 10,27.5 4.6,23.7 10,19.9 15.5,23.7 			"/>
			<polygon class="st51" points="10,27.5 10,27.5 4.6,23.7 10,19.9 15.5,23.7 			"/>
			<polygon class="st52" points="37.3,16.1 37.3,16.1 31.9,12.3 37.3,8.5 42.8,12.3 			"/>
			<polygon class="st51" points="37.3,16.1 37.3,16.1 31.9,12.3 37.3,8.5 42.8,12.3 			"/>
			<polygon class="st52" points="31.9,19.9 31.9,19.9 26.4,16.1 31.9,12.3 37.3,16.1 			"/>
			<polygon class="st51" points="31.9,19.9 31.9,19.9 26.4,16.1 31.9,12.3 37.3,16.1 			"/>
			<polygon class="st52" points="26.4,23.7 26.4,23.7 21,19.9 26.4,16.1 31.9,19.9 			"/>
			<polygon class="st51" points="26.4,23.7 26.4,23.7 21,19.9 26.4,16.1 31.9,19.9 			"/>
			<polygon class="st53" points="15.5,31.3 15.5,31.3 10,27.5 15.5,23.7 21,27.5 			"/>
			<polygon class="st51" points="15.5,31.3 15.5,31.3 10,27.5 15.5,23.7 21,27.5 			"/>
			<polygon class="st52" points="42.8,19.9 42.8,19.9 37.3,16.1 42.8,12.3 48.2,16.1 			"/>
			<polygon class="st51" points="42.8,19.9 42.8,19.9 37.3,16.1 42.8,12.3 48.2,16.1 			"/>
			<polygon class="st53" points="21,35 21,35 15.5,31.3 21,27.5 26.4,31.3 			"/>
			<polygon class="st51" points="21,35 21,35 15.5,31.3 21,27.5 26.4,31.3 			"/>
			<polygon class="st52" points="48.2,23.7 48.2,23.7 42.8,19.9 48.2,16.1 53.7,19.9 			"/>
			<polygon class="st51" points="48.2,23.7 48.2,23.7 42.8,19.9 48.2,16.1 53.7,19.9 			"/>
			<polygon class="st54" points="37.3,31.3 37.3,31.3 31.9,27.5 37.3,23.7 42.8,27.5 			"/>
			<polygon class="st51" points="37.3,31.3 37.3,31.3 31.9,27.5 37.3,23.7 42.8,27.5 			"/>
			<polygon class="st53" points="31.9,35 31.9,35 26.4,31.3 31.9,27.5 37.3,31.3 			"/>
			<polygon class="st51" points="31.9,35 31.9,35 26.4,31.3 31.9,27.5 37.3,31.3 			"/>
			<polygon class="st53" points="26.4,38.9 26.4,38.9 21,35 26.4,31.3 31.9,35 			"/>
			<polygon class="st51" points="26.4,38.9 26.4,38.9 21,35 26.4,31.3 31.9,35 			"/>
			<polygon class="st55" points="26.4,31.3 26.4,31.3 21,27.5 21,19.9 26.4,23.7 			"/>
			<polygon class="st51" points="26.4,31.3 26.4,31.3 21,27.5 21,19.9 26.4,23.7 			"/>
			<polygon class="st55" points="21,27.5 21,27.5 15.5,23.7 15.5,16.1 21,19.9 			"/>
			<polygon class="st51" points="21,27.5 21,27.5 15.5,23.7 15.5,16.1 21,19.9 			"/>
			<polygon class="st55" points="15.5,23.7 15.5,23.7 10,19.9 10,12.3 15.5,16.1 			"/>
			<polygon class="st51" points="15.5,23.7 15.5,23.7 10,19.9 10,12.3 15.5,16.1 			"/>
			<polygon class="st55" points="42.8,27.5 42.8,27.5 37.3,23.7 37.3,16.1 42.8,19.9 			"/>
			<polygon class="st51" points="42.8,27.5 42.8,27.5 37.3,23.7 37.3,16.1 42.8,19.9 			"/>
			<polygon class="st50" points="26.4,16.1 26.4,16.1 31.9,12.3 31.9,4.8 26.4,8.5 			"/>
			<polygon class="st51" points="26.4,16.1 26.4,16.1 31.9,12.3 31.9,4.8 26.4,8.5 			"/>
			<polygon class="st50" points="21,19.9 21,19.9 26.4,16.1 26.4,8.5 21,12.3 			"/>
			<polygon class="st51" points="21,19.9 21,19.9 26.4,16.1 26.4,8.5 21,12.3 			"/>
			<polygon class="st52" points="42.8,27.5 42.8,27.5 37.3,23.7 42.8,19.9 48.2,23.7 			"/>
			<polygon class="st51" points="42.8,27.5 42.8,27.5 37.3,23.7 42.8,19.9 48.2,23.7 			"/>
			<polygon class="st52" points="21,19.9 21,19.9 15.5,16.1 21,12.3 26.4,16.1 			"/>
			<polygon class="st51" points="21,19.9 21,19.9 15.5,16.1 21,12.3 26.4,16.1 			"/>
			<polygon class="st56" points="200.1,57.6 200.1,57.6 -17.7,57.6 -17.7,-72.8 200.1,-72.8 			"/>
		</g>
	</g>
</g>
</svg>
